<svg xmlns="http://www.w3.org/2000/svg" width="800" height="600" viewBox="0 0 800 600">
  <!-- Background -->
  <rect width="800" height="600" fill="#f8f9fa"/>
  
  <!-- Building Outline -->
  <rect x="150" y="150" width="500" height="300" fill="#e9ecef" stroke="#adb5bd" stroke-width="3" rx="10"/>
  
  <!-- Windows Row 1 -->
  <g fill="#3498db">
    <rect x="180" y="180" width="50" height="40" rx="2"/>
    <rect x="260" y="180" width="50" height="40" rx="2"/>
    <rect x="340" y="180" width="50" height="40" rx="2"/>
    <rect x="420" y="180" width="50" height="40" rx="2"/>
    <rect x="500" y="180" width="50" height="40" rx="2"/>
    <rect x="580" y="180" width="50" height="40" rx="2"/>
  </g>
  
  <!-- Windows Row 2 -->
  <g fill="#3498db">
    <rect x="180" y="250" width="50" height="40" rx="2"/>
    <rect x="260" y="250" width="50" height="40" rx="2"/>
    <rect x="340" y="250" width="50" height="40" rx="2"/>
    <rect x="420" y="250" width="50" height="40" rx="2"/>
    <rect x="500" y="250" width="50" height="40" rx="2"/>
    <rect x="580" y="250" width="50" height="40" rx="2"/>
  </g>
  
  <!-- Windows Row 3 -->
  <g fill="#3498db">
    <rect x="180" y="320" width="50" height="40" rx="2"/>
    <rect x="260" y="320" width="50" height="40" rx="2"/>
    <rect x="340" y="320" width="50" height="40" rx="2"/>
    <rect x="420" y="320" width="50" height="40" rx="2"/>
    <rect x="500" y="320" width="50" height="40" rx="2"/>
    <rect x="580" y="320" width="50" height="40" rx="2"/>
  </g>
  
  <!-- Entrance -->
  <rect x="350" y="380" width="100" height="70" fill="#6c757d" rx="3"/>
  <rect x="375" y="390" width="50" height="60" fill="#2c3e50" rx="2"/>
  
  <!-- Roof -->
  <polygon points="130,150 400,80 670,150" fill="#343a40" stroke="#212529" stroke-width="2"/>
  
  <!-- Loading Dock -->
  <rect x="520" y="380" width="100" height="40" fill="#6c757d" rx="3"/>
  <rect x="540" y="400" width="60" height="20" fill="#2c3e50" rx="2"/>
  
  <!-- Machinery Silhouettes -->
  <g fill="#495057">
    <!-- Machine 1 -->
    <rect x="200" y="400" width="40" height="30" rx="3"/>
    <rect x="195" y="370" width="10" height="30" rx="2"/>
    <rect x="235" y="370" width="10" height="30" rx="2"/>
    
    <!-- Machine 2 -->
    <rect x="280" y="405" width="30" height="25" rx="3"/>
    <circle cx="295" cy="395" r="10"/>
    
    <!-- Machine 3 -->
    <rect x="350" y="405" width="30" height="25" rx="3"/>
    <rect x="355" y="390" width="20" height="15" rx="2"/>
    
    <!-- Machine 4 -->
    <rect x="420" y="400" width="40" height="30" rx="3"/>
    <polygon points="430,400 440,380 450,400"/>
  </g>
  
  <!-- Sign -->
  <rect x="300" y="100" width="200" height="40" fill="#3498db" stroke="#2980b9" stroke-width="2" rx="5"/>
  <text x="400" y="125" font-family="Arial, sans-serif" font-size="18" font-weight="bold" fill="white" text-anchor="middle">TITECHO MANUFACTURING</text>
  
  <!-- Trees -->
  <g>
    <!-- Tree 1 -->
    <rect x="110" y="420" width="10" height="30" fill="#8b4513"/>
    <circle cx="115" cy="400" r="25" fill="#2ecc71"/>
    
    <!-- Tree 2 -->
    <rect x="680" y="420" width="10" height="30" fill="#8b4513"/>
    <circle cx="685" cy="400" r="25" fill="#2ecc71"/>
  </g>
  
  <!-- Titecho Logo -->
  <g transform="translate(550, 90) scale(0.5)">
    <circle cx="50" cy="50" r="40" fill="#3498db"/>
    <text x="50" y="65" font-family="Arial, sans-serif" font-size="30" font-weight="bold" fill="white" text-anchor="middle">T</text>
  </g>
  
  <!-- Factory Details - Chimney -->
  <rect x="580" y="100" width="20" height="50" fill="#495057"/>
  <circle cx="590" cy="90" r="15" fill="#adb5bd" opacity="0.7"/>
  
  <!-- Production Line - Shafts -->
  <line x1="180" y1="450" x2="600" y2="450" stroke="#6c757d" stroke-width="2" stroke-dasharray="5,5"/>
  <circle cx="180" cy="450" r="15" fill="#495057"/>
  <circle cx="600" cy="450" r="15" fill="#495057"/>
</svg>